<?xml version="1.0" encoding="utf-8"?><svg viewBox="0 0 512 512" xmlns="http://www.w3.org/2000/svg" xmlns:xlink="http://www.w3.org/1999/xlink"><style>:root>svg{display:none}:root>svg:target{display:block}</style><svg version="1.0" viewBox="0 0 32 32" id="github" xmlns="http://www.w3.org/2000/svg"><path clip-rule="evenodd" d="M16.003 0C7.17 0 .008 7.162.008 15.997c0 7.067 4.582 13.063 10.94 15.179.8.146 1.052-.328 1.052-.752 0-.38.008-1.442 0-2.777-4.449.967-5.371-2.107-5.371-2.107-.727-1.848-1.775-2.34-1.775-2.34-1.452-.992.109-.973.109-.973 1.605.113 2.451 1.649 2.451 1.649 1.427 2.443 3.743 1.737 4.654 1.329.146-1.034.56-1.739 1.017-2.139-3.552-.404-7.286-1.776-7.286-7.906 0-1.747.623-3.174 1.646-4.292-.165-.404-.715-2.031.157-4.234 0 0 1.343-.43 4.398 1.641a15.31 15.31 0 014.005-.538c1.359.006 2.727.183 4.005.538 3.055-2.07 4.396-1.641 4.396-1.641.872 2.203.323 3.83.159 4.234 1.023 1.118 1.644 2.545 1.644 4.292 0 6.146-3.74 7.498-7.304 7.893C19.479 23.548 20 24.508 20 26v4.428c0 .428.258.901 1.07.746C27.422 29.055 32 23.062 32 15.997 32 7.162 24.838 0 16.003 0z" fill-rule="evenodd"/></svg><svg viewBox="0 0 512 512" id="linkout" xmlns="http://www.w3.org/2000/svg"><path d="M488.727 0H302.545c-12.853 0-23.273 10.42-23.273 23.273s10.42 23.273 23.273 23.273h129.997L192.999 286.09c-9.089 9.089-9.089 23.823 0 32.912a23.195 23.195 0 0016.455 6.816 23.194 23.194 0 0016.457-6.817L465.455 79.458v129.997c0 12.853 10.42 23.273 23.273 23.273s23.273-10.42 23.273-23.273V23.273C512 10.42 501.58 0 488.727 0z"/><path d="M395.636 232.727c-12.853 0-23.273 10.42-23.273 23.273v209.455H46.545V139.636H256c12.853 0 23.273-10.42 23.273-23.273S268.853 93.091 256 93.091H23.273C10.42 93.091 0 103.511 0 116.364v372.364C0 501.58 10.42 512 23.273 512h372.364c12.853 0 23.273-10.42 23.273-23.273V256c-.001-12.853-10.421-23.273-23.274-23.273z"/></svg></svg>